HIERARCHY
ROOT Hips
{
    OFFSET 0.000000 0.000000 0.000000
    CHANNELS 6 Xposition Yposition Zposition Zrotation Xrotation Yrotation
        JOINT Chest
        {
            OFFSET -0.000000 29.391830 -0.000000
            CHANNELS 3 Zrotation Xrotation Yrotation
            JOINT Neck
            {
                OFFSET -0.000000 21.536943 0.000000
                CHANNELS 3 Zrotation Xrotation Yrotation
                JOINT Head
                {
                    OFFSET -0.000000 10.450000 0.000000
                    CHANNELS 3 Zrotation Xrotation Yrotation
                    End Site
                    {
                        OFFSET -0.000000 16.150003 0.000000
                    }
                }
            }
            JOINT LeftCollar
            {
                OFFSET -0.000000 21.536943 0.000000
                CHANNELS 3 Zrotation Xrotation Yrotation
                JOINT LeftShoulder
                {
                    OFFSET 19.500000 -0.000000 0.000000
                    CHANNELS 3 Zrotation Xrotation Yrotation
                    JOINT LeftElbow
                    {
                        OFFSET 20.632557 0.000000 0.000000
                        CHANNELS 3 Zrotation Xrotation Yrotation
                        JOINT LeftWrist
                        {
                            OFFSET 24.683100 0.000000 0.000000
                            CHANNELS 3 Zrotation Xrotation Yrotation
                            End Site
                            {
                                OFFSET 0.000000 -14.250000 0.000000
                            }
                        }
                    }
                }
            }
            JOINT RightCollar
            {
                OFFSET -0.000000 21.536943 0.000000
                CHANNELS 3 Zrotation Xrotation Yrotation
                JOINT RightShoulder
                {
                    OFFSET -19.500000 0.000000 0.000000
                    CHANNELS 3 Zrotation Xrotation Yrotation
                    JOINT RightElbow
                    {
                        OFFSET -20.632557 0.000000 0.000000
                        CHANNELS 3 Zrotation Xrotation Yrotation
                        JOINT RightWrist
                        {
                            OFFSET -24.683100 0.000000 0.000000
                            CHANNELS 3 Zrotation Xrotation Yrotation
                            End Site
                            {
                                OFFSET -0.000000 -14.250000 0.000000
                            }
                        }
                    }
                }
            }
        }
    JOINT LeftHip
    {
        OFFSET 11.400001 0.000000 0.000000
        CHANNELS 3 Zrotation Xrotation Yrotation
        JOINT LeftKnee
        {
            OFFSET -0.000000 -38.134491 0.000000
            CHANNELS 3 Zrotation Xrotation Yrotation
            JOINT LeftAnkle
            {
                OFFSET -0.000000 -39.452507 0.000000
                CHANNELS 3 Zrotation Xrotation Yrotation
                End Site
                {
                    OFFSET -0.000000 -4.750000 16.150003
                }
            }
        }
    }
    JOINT RightHip
    {
        OFFSET -11.400001 0.000000 0.000000
        CHANNELS 3 Zrotation Xrotation Yrotation
        JOINT RightKnee
        {
            OFFSET -0.000000 -38.134491 0.000000
            CHANNELS 3 Zrotation Xrotation Yrotation
            JOINT RightAnkle
            {
                OFFSET -0.000000 -39.452507 0.000000
                CHANNELS 3 Zrotation Xrotation Yrotation
                End Site
                {
                    OFFSET -0.000000 -4.750000 16.150003
                }
            }
        }
    }
}
MOTION
Frames:    6
Frame Time:    0.010000
-87.581696    78.403343    -105.435051    -12.621413    12.706618    54.155613    -7.834437    22.786285    12.027379    -15.733162    -3.248133    -19.315165    8.679067    -30.581591    -16.510181    -19.996201    -0.555894    2.780589    -23.164747    32.020855    -56.956039    38.540222    -24.776569    -63.029636    129.248718    25.465141    48.289440    21.518280    4.373908    24.001453    -16.836945    29.356644    63.191193    -35.091236    -9.981284    30.978981    -106.801414    -16.815857    2.608134    13.460948    -32.838570    0.727430    4.493332    40.096493    -21.153357    -6.852555    -28.353939    7.562869    -10.903569    -60.989708    2.289409    1.728924    54.311218    -11.109395    13.106450    -12.198514    8.311637    
-87.938736    78.329895    -104.593552    -12.700018    12.623640    55.378258    -8.025136    23.087505    11.989614    -15.695832    -3.098120    -19.729988    8.930520    -29.855835    -16.935619    -19.839039    -0.486057    2.475744    -23.182528    31.770361    -57.133972    39.575455    -25.104959    -62.192810    127.633759    24.648907    49.115921    20.917788    4.365963    24.572540    -16.872326    28.416553    62.311703    -35.563705    -10.209309    31.047060    -104.436005    -16.878248    2.509022    13.674247    -33.059570    1.162373    5.366208    39.824841    -22.529779    -7.042455    -27.881880    7.299771    -11.605933    -60.962734    0.658451    1.717262    55.079430    -11.338652    12.649778    -12.822653    8.532913    
-88.259087    78.264069    -103.725014    -12.748828    12.460253    56.521370    -8.177135    23.372362    11.923263    -15.642556    -2.886621    -20.049850    9.264683    -29.008907    -17.266142    -19.644423    -0.425638    2.252811    -23.174261    31.660913    -57.234489    40.666328    -25.391922    -61.214855    125.661201    23.635460    49.975239    20.265661    4.312248    24.993359    -17.043568    27.651117    61.580704    -36.135948    -10.427834    30.981155    -101.772408    -16.867790    2.167835    13.943188    -33.117393    1.901946    6.417915    39.426594    -24.096102    -7.143234    -27.389215    7.055280    -12.020620    -60.820316    -0.165044    2.379029    55.715450    -12.470768    12.326072    -13.394663    8.795094    
-88.543793    78.199051    -102.838173    -12.786400    12.222424    57.556744    -8.286850    23.618643    11.831448    -15.569262    -2.617329    -20.264067    9.677359    -28.057293    -17.493147    -19.428036    -0.383109    2.108797    -23.185593    31.648722    -57.188923    41.794643    -25.628485    -60.142372    123.322403    22.368746    50.842781    19.579189    4.222336    25.272430    -17.286554    27.025986    60.959129    -36.777298    -10.617848    30.806784    -98.903999    -16.818083    1.626687    14.294388    -33.032093    2.884716    7.564834    38.932022    -25.791080    -7.163531    -26.923241    6.908177    -12.109941    -60.610023    -0.157419    3.752589    56.238537    -14.496012    12.115710    -13.910472    9.071913    
-88.794228    78.129654    -101.943123    -12.828137    11.921886    58.463486    -8.351639    23.807657    11.712923    -15.472590    -2.303960    -20.364845    10.155626    -27.015385    -17.611374    -19.203304    -0.335386    2.036252    -23.271688    31.654282    -56.929508    42.866150    -25.771549    -59.084431    120.689392    20.848145    51.672729    18.882509    4.106520    25.424868    -17.539337    26.502615    60.404346    -37.447289    -10.770506    30.552685    -95.957039    -16.717813    0.956249    14.740190    -32.829094    4.006049    8.702355    38.382587    -27.497553    -7.127943    -26.521265    6.915746    -11.877053    -60.373924    0.608448    5.783877    56.654060    -17.281208    11.982208    -14.379427    9.322834    
-89.012383    78.052986    -101.051117    -12.886341    11.574670    59.230709    -8.369623    23.923922    11.560723    -15.353354    -1.964045    -20.350367    10.680989    -25.895500    -17.622738    -18.976704    -0.355352    2.022234    -23.481146    31.709202    -56.409512    43.932247    -25.902962    -58.045124    117.751801    18.954290    52.380630    18.205179    3.976013    25.467644    -17.748272    26.044067    59.873920    -38.100189    -10.883244    30.248068    -93.043190    -16.543514    0.248749    15.277619    -32.536476    5.127705    9.718766    37.826935    -29.041027    -7.085006    -26.206644    7.091592    -11.359317    -60.145550    1.973733    8.326204    56.960732    -20.583994    11.881258    -14.818680    9.504946    
